{
  "source": "C:\\Users\\Peter\\Desktop\\stuff\\MIUN\\quantitative_research\\video_compression\\videos\\BVI-HD\\BVI-HD_CDVL_videos\\ORIG\\BubblesPitcher_1920x1080_60fps.mp4",
  "output": "C:\\Users\\Peter\\Desktop\\stuff\\MIUN\\quantitative_research\\video_compression\\compressed_videos\\BVI-HD\\vp9\\1\\BubblesPitcher_1920x1080_60fps_vp9.webm",
  "codec": "vp9",
  "ok": "Input #0, mov,mp4,m4a,3gp,3g2,mj2, from 'C:\\Users\\Peter\\Desktop\\stuff\\MIUN\\quantitative_research\\video_compression\\videos\\BVI-HD\\BVI-HD_CDVL_videos\\ORIG\\BubblesPitcher_1920x1080_60fps.mp4':\n  Metadata:\n    major_brand     : isom\n    minor_version   : 512\n    compatible_brands: isomiso2avc1mp41\n    encoder         : Lavf54.28.101\n  Duration: 00:00:05.00, start: 0.000000, bitrate: 188849 kb/s\n  Stream #0:0[0x1](und): Video: h264 (High 4:4:4 Predictive) (avc1 / 0x31637661), yuv420p(progressive), 1920x1080, 188844 kb/s, 60 fps, 60 tbr, 60 tbn (default)\n    Metadata:\n      handler_name    : VideoHandler\n      vendor_id       : [0][0][0][0]\n[out#0/webm @ 00000158ff9dcc80] Codec AVOption b:a (set bitrate (in bits/s)) has not been used for any stream. The most likely reason is either wrong type (e.g. a video option with no video streams) or that it is a private option of some decoder which was not actually used for any stream.\nStream mapping:\n  Stream #0:0 -> #0:0 (h264 (native) -> vp9 (libvpx-vp9))\nPress [q] to stop, [?] for help\n[libvpx-vp9 @ 0000015880135480] v1.15.2-100-g40561f514\nOutput #0, webm, to 'C:\\Users\\Peter\\Desktop\\stuff\\MIUN\\quantitative_research\\video_compression\\compressed_videos\\BVI-HD\\vp9\\1\\BubblesPitcher_1920x1080_60fps_vp9.webm':\n  Metadata:\n    major_brand     : isom\n    minor_version   : 512\n    compatible_brands: isomiso2avc1mp41\n    encoder         : Lavf62.3.100\n  Stream #0:0(und): Video: vp9, yuv420p(tv, progressive), 1920x1080, q=2-31, 1000 kb/s, 60 fps, 1k tbn (default)\n    Metadata:\n      encoder         : Lavc62.11.100 libvpx-vp9\n      handler_name    : VideoHandler\n      vendor_id       : [0][0][0][0]\n    Side data:\n      cpb: bitrate max/min/avg: 0/0/0 buffer size: 1000000 vbv_delay: N/A\nframe=    7 fps=0.0 q=37.0 size=       1KiB time=00:00:00.11 bitrate=  43.4kbits/s speed=0.225x elapsed=0:00:00.51    \nframe=   16 fps= 15 q=33.0 size=       1KiB time=00:00:00.26 bitrate=  19.0kbits/s speed=0.258x elapsed=0:00:01.03    \nframe=   26 fps= 17 q=41.0 size=       1KiB time=00:00:00.43 bitrate=  11.7kbits/s speed=0.277x elapsed=0:00:01.56    \nframe=   36 fps= 17 q=47.0 size=       1KiB time=00:00:00.60 bitrate=   8.4kbits/s speed=0.286x elapsed=0:00:02.10    \nframe=   44 fps= 17 q=46.0 size=       1KiB time=00:00:00.73 bitrate=   6.9kbits/s speed=0.279x elapsed=0:00:02.62    \nframe=   52 fps= 16 q=47.0 size=       1KiB time=00:00:00.86 bitrate=   5.8kbits/s speed=0.275x elapsed=0:00:03.15    \nframe=   61 fps= 16 q=33.0 size=       1KiB time=00:00:01.01 bitrate=   5.0kbits/s speed=0.274x elapsed=0:00:03.71    \nframe=   70 fps= 17 q=47.0 size=       1KiB time=00:00:01.16 bitrate=   4.3kbits/s speed=0.275x elapsed=0:00:04.23    \nframe=   78 fps= 16 q=49.0 size=       1KiB time=00:00:01.30 bitrate=   3.9kbits/s speed=0.274x elapsed=0:00:04.75    \nframe=   86 fps= 16 q=50.0 size=       1KiB time=00:00:01.43 bitrate=   3.5kbits/s speed=0.272x elapsed=0:00:05.27    \nframe=   95 fps= 16 q=51.0 size=       1KiB time=00:00:01.58 bitrate=   3.2kbits/s speed=0.274x elapsed=0:00:05.78    \nframe=  104 fps= 16 q=52.0 size=       1KiB time=00:00:01.73 bitrate=   2.9kbits/s speed=0.275x elapsed=0:00:06.30    \nframe=  113 fps= 17 q=51.0 size=       1KiB time=00:00:01.88 bitrate=   2.7kbits/s speed=0.276x elapsed=0:00:06.83    \nframe=  122 fps= 17 q=49.0 size=       1KiB time=00:00:02.03 bitrate=   2.5kbits/s speed=0.276x elapsed=0:00:07.35    \nframe=  131 fps= 17 q=56.0 size=     224KiB time=00:00:02.18 bitrate= 841.2kbits/s speed=0.276x elapsed=0:00:07.89    \nframe=  139 fps= 17 q=60.0 size=     224KiB time=00:00:02.31 bitrate= 792.8kbits/s speed=0.275x elapsed=0:00:08.41    \nframe=  146 fps= 16 q=61.0 size=     224KiB time=00:00:02.43 bitrate= 754.8kbits/s speed=0.272x elapsed=0:00:08.93    \nframe=  152 fps= 16 q=46.0 size=     224KiB time=00:00:02.53 bitrate= 725.0kbits/s speed=0.268x elapsed=0:00:09.44    \nframe=  159 fps= 16 q=62.0 size=     224KiB time=00:00:02.65 bitrate= 693.1kbits/s speed=0.266x elapsed=0:00:09.95    \nframe=  165 fps= 16 q=62.0 size=     224KiB time=00:00:02.75 bitrate= 667.9kbits/s speed=0.262x elapsed=0:00:10.49    \nframe=  171 fps= 16 q=63.0 size=     224KiB time=00:00:02.85 bitrate= 644.5kbits/s speed=0.259x elapsed=0:00:11.01    \nframe=  175 fps= 15 q=63.0 size=     224KiB time=00:00:02.91 bitrate= 629.7kbits/s speed=0.253x elapsed=0:00:11.52    \nframe=  180 fps= 15 q=63.0 size=     224KiB time=00:00:03.00 bitrate= 612.2kbits/s speed=0.249x elapsed=0:00:12.03    \nframe=  183 fps= 15 q=63.0 size=     224KiB time=00:00:03.05 bitrate= 602.2kbits/s speed=0.243x elapsed=0:00:12.55    \nframe=  186 fps= 14 q=63.0 size=     224KiB time=00:00:03.10 bitrate= 592.5kbits/s speed=0.236x elapsed=0:00:13.14    \nframe=  190 fps= 14 q=63.0 size=     224KiB time=00:00:03.16 bitrate= 580.0kbits/s speed=0.232x elapsed=0:00:13.67    \nframe=  194 fps= 14 q=54.0 size=     224KiB time=00:00:03.23 bitrate= 568.1kbits/s speed=0.227x elapsed=0:00:14.22    \nframe=  199 fps= 13 q=63.0 size=     224KiB time=00:00:03.31 bitrate= 553.8kbits/s speed=0.225x elapsed=0:00:14.75    \nframe=  204 fps= 13 q=63.0 size=     224KiB time=00:00:03.40 bitrate= 540.2kbits/s speed=0.222x elapsed=0:00:15.28    \nframe=  207 fps= 13 q=63.0 size=     224KiB time=00:00:03.45 bitrate= 532.4kbits/s speed=0.218x elapsed=0:00:15.84    \nframe=  211 fps= 13 q=63.0 size=     224KiB time=00:00:03.51 bitrate= 522.3kbits/s speed=0.215x elapsed=0:00:16.35    \nframe=  215 fps= 13 q=63.0 size=     224KiB time=00:00:03.58 bitrate= 512.6kbits/s speed=0.212x elapsed=0:00:16.89    \nframe=  219 fps= 13 q=63.0 size=     224KiB time=00:00:03.65 bitrate= 503.2kbits/s speed=0.21x elapsed=0:00:17.41    \nframe=  223 fps= 12 q=63.0 size=     224KiB time=00:00:03.71 bitrate= 494.2kbits/s speed=0.207x elapsed=0:00:17.92    \nframe=  226 fps= 12 q=63.0 size=     224KiB time=00:00:03.76 bitrate= 487.6kbits/s speed=0.204x elapsed=0:00:18.49    \nframe=  228 fps= 12 q=63.0 size=     224KiB time=00:00:03.80 bitrate= 483.3kbits/s speed=0.199x elapsed=0:00:19.06    \nframe=  231 fps= 12 q=63.0 size=     224KiB time=00:00:03.85 bitrate= 477.1kbits/s speed=0.196x elapsed=0:00:19.62    \nframe=  233 fps= 11 q=63.0 size=     224KiB time=00:00:03.88 bitrate= 473.0kbits/s speed=0.191x elapsed=0:00:20.27    \nframe=  236 fps= 11 q=56.0 size=     224KiB time=00:00:03.93 bitrate= 467.0kbits/s speed=0.189x elapsed=0:00:20.80    \nframe=  239 fps= 11 q=63.0 size=     224KiB time=00:00:03.98 bitrate= 461.1kbits/s speed=0.186x elapsed=0:00:21.37    \nframe=  242 fps= 11 q=56.0 size=     224KiB time=00:00:04.01 bitrate= 457.3kbits/s speed=0.183x elapsed=0:00:21.97    \nframe=  245 fps= 11 q=63.0 size=     224KiB time=00:00:04.08 bitrate= 449.8kbits/s speed=0.181x elapsed=0:00:22.54    \nframe=  247 fps= 11 q=63.0 size=     224KiB time=00:00:04.11 bitrate= 446.2kbits/s speed=0.178x elapsed=0:00:23.15    \nframe=  250 fps= 11 q=63.0 size=     224KiB time=00:00:04.16 bitrate= 440.8kbits/s speed=0.175x elapsed=0:00:23.76    \nframe=  253 fps= 10 q=63.0 size=     224KiB time=00:00:04.21 bitrate= 435.6kbits/s speed=0.174x elapsed=0:00:24.28    \nframe=  256 fps= 10 q=63.0 size=     224KiB time=00:00:04.26 bitrate= 430.5kbits/s speed=0.172x elapsed=0:00:24.87    \nframe=  260 fps= 10 q=63.0 size=     512KiB time=00:00:04.31 bitrate= 971.7kbits/s speed=0.169x elapsed=0:00:25.60    \nframe=  262 fps= 10 q=63.0 size=     512KiB time=00:00:04.36 bitrate= 960.5kbits/s speed=0.166x elapsed=0:00:26.26    \nframe=  265 fps=9.9 q=63.0 size=     512KiB time=00:00:04.41 bitrate= 949.7kbits/s speed=0.165x elapsed=0:00:26.77    \nframe=  268 fps=9.8 q=63.0 size=     512KiB time=00:00:04.45 bitrate= 942.5kbits/s speed=0.163x elapsed=0:00:27.38    \nframe=  270 fps=9.6 q=63.0 size=     512KiB time=00:00:04.50 bitrate= 932.1kbits/s speed=0.16x elapsed=0:00:28.11    \nframe=  273 fps=9.5 q=63.0 size=     512KiB time=00:00:04.55 bitrate= 921.8kbits/s speed=0.158x elapsed=0:00:28.75    \nframe=  276 fps=9.4 q=63.0 size=     512KiB time=00:00:04.60 bitrate= 911.8kbits/s speed=0.157x elapsed=0:00:29.33    \nframe=  276 fps=9.2 q=63.0 size=     512KiB time=00:00:04.60 bitrate= 911.8kbits/s speed=0.153x elapsed=0:00:30.04    \nframe=  276 fps=9.0 q=63.0 size=     512KiB time=00:00:04.60 bitrate= 911.8kbits/s speed=0.149x elapsed=0:00:30.78    \nframe=  276 fps=8.8 q=63.0 size=     512KiB time=00:00:04.60 bitrate= 911.8kbits/s speed=0.146x elapsed=0:00:31.51    \nframe=  276 fps=8.6 q=63.0 size=     512KiB time=00:00:04.60 bitrate= 911.8kbits/s speed=0.143x elapsed=0:00:32.22    \nframe=  276 fps=8.4 q=63.0 size=     512KiB time=00:00:04.60 bitrate= 911.8kbits/s speed=0.14x elapsed=0:00:32.94    \nframe=  276 fps=8.2 q=63.0 size=     512KiB time=00:00:04.60 bitrate= 911.8kbits/s speed=0.137x elapsed=0:00:33.50    \nframe=  276 fps=8.1 q=63.0 size=     512KiB time=00:00:04.60 bitrate= 911.8kbits/s speed=0.135x elapsed=0:00:34.16    \nframe=  276 fps=7.9 q=63.0 size=     512KiB time=00:00:04.60 bitrate= 911.8kbits/s speed=0.132x elapsed=0:00:34.90    \nframe=  276 fps=7.7 q=63.0 size=     512KiB time=00:00:04.60 bitrate= 911.8kbits/s speed=0.129x elapsed=0:00:35.63    \n[out#0/webm @ 00000158ff9dcc80] video:683KiB audio:0KiB subtitle:0KiB other streams:0KiB global headers:0KiB muxing overhead: 0.403727%\nframe=  300 fps=8.4 q=63.0 Lsize=     686KiB time=00:00:05.00 bitrate=1123.3kbits/s speed=0.14x elapsed=0:00:35.84    \n",
  "seconds": 36.568615436553955,
  "probe_out": {}
}